# xmcd
#
# Track frame offsets: 
#        150
#        15433
#        27411
#        41785
#        52517
#        63053
#        74885
#        87058
#        96703
#        106431
#        116417
#        128047
#
# Disc length: 1872 seconds
#
# Revision: 0
# Processed by: cddbd v1.5.2PL0 Copyright (c) Steve Scherf et al.
# Submitted via: ExactAudioCopyFreeDBPlugin 1.0
#
DISCID=9c074e0c
DTITLE=Bobby Bare - The Streets Of Baltimore
DYEAR=2018
DGENRE=Country
TTITLE0=Early Morning Rain
TTITLE1=Houston
TTITLE2=Saginaw, Michigan
TTITLE3=Take Me Home To Mama
TTITLE4=Memphis, Tennessee
TTITLE5=Streets Of Baltimore
TTITLE6=That's How I Wanted It To Be
TTITLE7=Vincennes
TTITLE8=Cold And Lonely City
TTITLE9=Changin' My Mind
TTITLE10=There Ain't No Fun In This Town
TTITLE11=Green, Green Grass Of Home
EXTD=
EXTT0=
EXTT1=
EXTT2=
EXTT3=
EXTT4=
EXTT5=
EXTT6=
EXTT7=
EXTT8=
EXTT9=
EXTT10=
EXTT11=
PLAYORDER=
